# xmcd CD database file
#
# Track frame offsets:
#	150
#	12375
#	29042
#	42582
#	52850
#	64572
#	77707
#	91365
#	103210
#	118117
#	132035
#	144777
#	160192
#	171325
#	185175
#	197105
#	212525
#	225777
#	239882
#	253232
#	266945
#	280505
#	294142
#	303140
#	314600
#
# Disc length: 4386 seconds
#
# Revision: 0
# Processed by: cddbd v1.4PL0 Copyright (c) Steve Scherf et al.
# Submitted via: CDex 1.50
#
DISCID=6b112019
DTITLE=Jimmy McCracklin and His Blues Blasters - The Modern Recordings 1948-50
DYEAR=1999
DGENRE=Blues
TTITLE0=Reelin' And Rockin' (AKA Rockin' All Day)
TTITLE1=Deceivin' Blues (Alt. Take)
TTITLE2=Beer Drinkin' Woman
TTITLE3=I'll Get A Break Some Day
TTITLE4=Love When It Rains (AKA Rainy Weather Blues)
TTITLE5=Deceivin' Blues
TTITLE6=I Think My Time Is Here
TTITLE7=Josephine
TTITLE8=Bad Condition Blues
TTITLE9=Blues Blasters Shuffle (Instrumental)
TTITLE10=Oh I'm In Love
TTITLE11=You Deceived Me
TTITLE12=Gotta Cut Out
TTITLE13=Up And Down Blues
TTITLE14=Racket Blues (Take 2)
TTITLE15=Bad Health Blues
TTITLE16=Just Won't Let Her Go
TTITLE17=Don't Mistreat Me (Take 1)
TTITLE18=Cold Hearted (Take 2)
TTITLE19=Your Heart Ain't Right
TTITLE20=Hamburger Joint
TTITLE21=Crying Blues
TTITLE22=Mistreating Me (Demo)
TTITLE23=Bad Health Blues (Demo)
TTITLE24=1942 Boogie
EXTD=YEAR: 1999
EXTT0=
EXTT1=
EXTT2=
EXTT3=
EXTT4=
EXTT5=
EXTT6=
EXTT7=
EXTT8=
EXTT9=
EXTT10=
EXTT11=
EXTT12=
EXTT13=
EXTT14=
EXTT15=
EXTT16=
EXTT17=
EXTT18=
EXTT19=
EXTT20=
EXTT21=
EXTT22=
EXTT23=
EXTT24=
PLAYORDER=
